{"title":"Franklyn.2008.BRRip.SweSub.Xvid","uid":8422049,"size":733630876,"categoryP":"video","categoryS":"movies","magnet":"?xt=urn:btih:eff272bf2a39964cb13cc8b66cb33aa801ce2871&amp;dn=Franklyn.2008.BRRip.SweSub.Xvid&amp;tr=udp%3A%2F%2Ftracker.openbittorrent.com%3A80&amp;tr=udp%3A%2F%2Fopen.demonii.com%3A1337&amp;tr=udp%3A%2F%2Ftracker.coppersurfer.tk%3A6969&amp;tr=udp%3A%2F%2Fexodus.desync.com%3A6969","seeders":0,"leechers":1,"uploader":"nordjok","files":-1,"time":1367225769,"description":"                          Swedish Hardsub\n\n &lt;a href=&quot;\nhttp://www.imdb.com/title/tt0893402/&quot; rel=&quot;nofollow&quot; target=&quot;_NEW&quot;&gt;\nhttp://www.imdb.com/title/tt0893402/&lt;/a&gt;\n\n\nGeneral\nComplete name                       : Franklyn.2008.BRRip.SweSub.Xvid.avi\nFormat                              : AVI\nFormat/Info                         : Audio Video Interleave\nFile size                           : 700 MiB\nDuration                            : 1h 38mn\n\n\nVideo\nID                                  : 0\nFormat                              : MPEG-4 Visual\nFormat profile                      : Advanced Simple@L5\nFormat settings, BVOP               : 2\nFormat settings, QPel               : No\nFormat settings, GMC                : No warppoints\nFormat settings, Matrix             : Default (H.263)\nCodec ID                            : XVID\nCodec ID/Hint                       : XviD\nDuration                            : 1h 38mn\nBit rate                            : 853 Kbps\nWidth                               : 720 pixels\nHeight                              : 304 pixels\nDisplay aspect ratio                : 2.35:1\nFrame rate                          : 23.976 fps\nColor space                         : YUV\nChroma subsampling                  : 4:2:0\nBit depth                           : 8 bits\nScan type                           : Progressive\nCompression mode                    : Lossy\nBits/(Pixel*Frame)                  : 0.163\nStream size                         : 598 MiB (86%)\nWriting library                     : XviD 73\n\nAudio\nID                                  : 1\nFormat                              : MPEG Audio\nFormat version                      : Version 1\nFormat profile                      : Layer 3\nCodec ID                            : 55\nCodec ID/Hint                       : MP3\nDuration                            : 1h 38mn\nBit rate mode                       : Variable\nBit rate                            : 132 Kbps\nMinimum bit rate                    : 32.0 Kbps\nChannel(s)                          : 2 channels\nSampling rate                       : 48.0 KHz\nCompression mode                    : Lossy\nStream size                         : 92.4 MiB (13%)\nAlignment                           : Aligned on interleaves\nInterleave, duration                : 24 ms (0.58 video frame)\nInterleave, preload duration        : 370 ms\nWriting library                     : LAME3.99r\nEncoding settings                   : -m s -V 5 -q 0 -lowpass 17 --vbr-new -b 32\n\n","torrent":{"xt":"urn:btih:eff272bf2a39964cb13cc8b66cb33aa801ce2871","amp;dn":"Franklyn.2008.BRRip.SweSub.Xvid","amp;tr":["udp%3A%2F%2Ftracker.openbittorrent.com%3A80","udp%3A%2F%2Fopen.demonii.com%3A1337","udp%3A%2F%2Ftracker.coppersurfer.tk%3A6969","udp%3A%2F%2Fexodus.desync.com%3A6969"],"infoHash":"eff272bf2a39964cb13cc8b66cb33aa801ce2871","infoHashBuffer":{"type":"Buffer","data":[239,242,114,191,42,57,150,76,177,60,200,182,108,179,58,168,1,206,40,113]},"announce":[],"urlList":[]}}